<svg
  width="290"
  height="72"
  viewBox="0 0 290 72"
  fill="none"
  xmlns="http://www.w3.org/2000/svg"
>
<path
    d="M197.395 42.319H194.955C194.448 42.319 194.048 42.439 193.755 42.679C193.462 42.9057 193.315 43.3457 193.315 43.999C193.315 44.439 193.402 44.7457 193.575 44.919C193.762 45.079 194.088 45.159 194.555 45.159C194.768 45.159 195.002 45.1324 195.255 45.079C195.508 45.0257 195.762 44.9524 196.015 44.859C196.268 44.7657 196.515 44.6657 196.755 44.559C196.995 44.439 197.208 44.3257 197.395 44.219V42.319ZM197.515 45.639C197.008 46.0257 196.435 46.339 195.795 46.579C195.168 46.819 194.515 46.939 193.835 46.939C193.302 46.939 192.855 46.8724 192.495 46.739C192.148 46.5924 191.868 46.399 191.655 46.159C191.455 45.9057 191.308 45.6057 191.215 45.259C191.135 44.9124 191.095 44.5257 191.095 44.099C191.082 42.9257 191.388 42.079 192.015 41.559C192.642 41.0257 193.588 40.759 194.855 40.759H197.415V40.239C197.415 39.9457 197.382 39.699 197.315 39.499C197.262 39.2857 197.155 39.1124 196.995 38.979C196.835 38.8457 196.622 38.7524 196.355 38.699C196.088 38.6457 195.748 38.619 195.335 38.619C195.175 38.619 194.975 38.6257 194.735 38.639C194.508 38.6524 194.268 38.6657 194.015 38.679C193.775 38.6924 193.528 38.7124 193.275 38.739C193.035 38.7657 192.815 38.7857 192.615 38.799C192.415 38.8257 192.275 38.8324 192.195 38.819C192.128 38.7924 192.082 38.7057 192.055 38.559L191.875 37.819C191.848 37.6857 191.862 37.579 191.915 37.499C191.968 37.4057 192.108 37.3124 192.335 37.219C192.548 37.139 192.802 37.0724 193.095 37.019C193.388 36.9657 193.688 36.9257 193.995 36.899C194.302 36.859 194.602 36.8324 194.895 36.819C195.202 36.7924 195.475 36.779 195.715 36.779C196.582 36.779 197.268 36.8657 197.775 37.039C198.295 37.2124 198.688 37.459 198.955 37.779C199.222 38.0857 199.395 38.4657 199.475 38.919C199.555 39.3724 199.595 39.879 199.595 40.439V44.299C199.595 44.499 199.602 44.659 199.615 44.779C199.642 44.8857 199.675 44.9724 199.715 45.039C199.768 45.0924 199.842 45.1324 199.935 45.159C200.028 45.1857 200.155 45.2057 200.315 45.219C200.462 45.2324 200.562 45.259 200.615 45.299C200.668 45.339 200.695 45.4124 200.695 45.519V46.359C200.695 46.5857 200.535 46.7257 200.215 46.779C200.055 46.8057 199.895 46.8257 199.735 46.839C199.575 46.8657 199.422 46.879 199.275 46.879C198.808 46.879 198.428 46.7924 198.135 46.619C197.855 46.4457 197.662 46.1257 197.555 45.659L197.515 45.639Z"
    fill="white"
  />
<path
    d="M189.985 41.819C189.985 42.6324 189.925 43.359 189.805 43.999C189.685 44.639 189.472 45.179 189.165 45.619C188.872 46.059 188.465 46.3924 187.945 46.619C187.439 46.8457 186.792 46.959 186.005 46.959C185.672 46.959 185.285 46.9257 184.845 46.859C184.419 46.7924 183.972 46.679 183.505 46.519L183.485 46.539V50.059C183.485 50.1657 183.459 50.259 183.405 50.339C183.365 50.419 183.265 50.459 183.105 50.459H181.685C181.525 50.459 181.419 50.4257 181.365 50.359C181.325 50.2924 181.305 50.1924 181.305 50.059V37.379C181.305 37.1124 181.432 36.979 181.685 36.979H183.105C183.252 36.979 183.345 37.019 183.385 37.099C183.439 37.1657 183.465 37.259 183.465 37.379V37.979L183.525 38.019C183.699 37.899 183.905 37.7724 184.145 37.639C184.399 37.4924 184.665 37.359 184.945 37.239C185.225 37.119 185.512 37.019 185.805 36.939C186.099 36.859 186.392 36.819 186.685 36.819C187.339 36.819 187.879 36.939 188.305 37.179C188.732 37.419 189.065 37.759 189.305 38.199C189.559 38.6257 189.732 39.1457 189.825 39.759C189.932 40.3724 189.985 41.059 189.985 41.819ZM187.725 41.799C187.725 41.159 187.692 40.6457 187.625 40.259C187.572 39.8724 187.479 39.5724 187.345 39.359C187.212 39.1457 187.045 39.0057 186.845 38.939C186.659 38.859 186.432 38.819 186.165 38.819C185.965 38.819 185.739 38.8524 185.485 38.919C185.232 38.9857 184.979 39.0657 184.725 39.159C184.485 39.239 184.252 39.3324 184.025 39.439C183.812 39.5457 183.632 39.639 183.485 39.719V44.719C183.939 44.8524 184.345 44.9457 184.705 44.999C185.079 45.039 185.439 45.059 185.785 45.059C186.145 45.059 186.445 45.0124 186.685 44.919C186.939 44.8124 187.139 44.6324 187.285 44.379C187.445 44.1257 187.559 43.7924 187.625 43.379C187.692 42.9524 187.725 42.4257 187.725 41.799Z"
    fill="white"
  />
<path
    d="M179.817 41.719C179.817 42.2924 179.777 42.8857 179.697 43.499C179.63 44.1124 179.45 44.679 179.157 45.199C178.863 45.7057 178.423 46.1257 177.837 46.459C177.25 46.779 176.437 46.939 175.397 46.939C174.397 46.939 173.61 46.779 173.037 46.459C172.463 46.1257 172.03 45.7057 171.737 45.199C171.457 44.679 171.283 44.1124 171.217 43.499C171.15 42.8857 171.117 42.2924 171.117 41.719C171.117 41.2524 171.157 40.7324 171.237 40.159C171.33 39.5857 171.523 39.0524 171.817 38.559C172.11 38.0524 172.537 37.6324 173.097 37.299C173.67 36.9524 174.437 36.779 175.397 36.779C176.37 36.779 177.143 36.9257 177.717 37.219C178.303 37.5124 178.75 37.899 179.057 38.379C179.363 38.8457 179.563 39.3724 179.657 39.959C179.763 40.5457 179.817 41.1324 179.817 41.719ZM177.577 41.859C177.577 41.3257 177.55 40.8657 177.497 40.479C177.443 40.079 177.337 39.7524 177.177 39.499C177.017 39.2324 176.797 39.0324 176.517 38.899C176.237 38.7657 175.87 38.699 175.417 38.699C174.99 38.699 174.643 38.7657 174.377 38.899C174.11 39.0324 173.897 39.2324 173.737 39.499C173.59 39.7657 173.483 40.099 173.417 40.499C173.363 40.8857 173.337 41.339 173.337 41.859C173.337 42.3924 173.363 42.859 173.417 43.259C173.483 43.6457 173.59 43.9724 173.737 44.239C173.883 44.4924 174.09 44.6857 174.357 44.819C174.623 44.9524 174.97 45.019 175.397 45.019C175.85 45.019 176.217 44.959 176.497 44.839C176.79 44.7057 177.017 44.5124 177.177 44.259C177.337 43.9924 177.443 43.659 177.497 43.259C177.55 42.859 177.577 42.3924 177.577 41.859Z"
    fill="white"
  />
<path
    d="M167.031 46.399C167.031 46.6524 166.905 46.779 166.651 46.779H165.211C164.958 46.779 164.831 46.6524 164.831 46.399V37.379C164.831 37.1124 164.958 36.979 165.211 36.979H166.631C166.898 36.979 167.031 37.1124 167.031 37.379V38.259L167.071 38.299C167.218 38.1657 167.411 38.0257 167.651 37.879C167.891 37.719 168.145 37.579 168.411 37.459C168.691 37.3257 168.971 37.2057 169.251 37.099C169.531 36.9924 169.791 36.919 170.031 36.879C170.165 36.8524 170.271 36.859 170.351 36.899C170.431 36.939 170.485 37.0457 170.511 37.219L170.651 38.559C170.665 38.7057 170.658 38.8124 170.631 38.879C170.605 38.9457 170.485 38.999 170.271 39.039C169.991 39.0924 169.698 39.159 169.391 39.239C169.085 39.3057 168.785 39.3857 168.491 39.479C168.198 39.559 167.925 39.639 167.671 39.719C167.418 39.799 167.205 39.879 167.031 39.959V46.399Z"
    fill="white"
  />
<path
    d="M162.766 46.399C162.766 46.6524 162.64 46.779 162.386 46.779H160.966C160.82 46.779 160.72 46.7457 160.666 46.679C160.613 46.6124 160.586 46.519 160.586 46.399V45.779L160.546 45.759C160.346 45.8924 160.113 46.0324 159.846 46.179C159.593 46.3124 159.32 46.439 159.026 46.559C158.733 46.679 158.426 46.7724 158.106 46.839C157.8 46.919 157.493 46.959 157.186 46.959C156.506 46.959 155.966 46.8657 155.566 46.679C155.18 46.4924 154.886 46.2324 154.686 45.899C154.486 45.5657 154.36 45.1724 154.306 44.719C154.253 44.2657 154.226 43.779 154.226 43.259V37.379C154.226 37.1124 154.353 36.979 154.606 36.979H156.066C156.306 36.979 156.426 37.1124 156.426 37.379V42.999C156.426 43.3057 156.446 43.579 156.486 43.819C156.526 44.059 156.6 44.2657 156.706 44.439C156.813 44.599 156.96 44.7257 157.146 44.819C157.333 44.9124 157.58 44.959 157.886 44.959C158.1 44.959 158.333 44.9257 158.586 44.859C158.853 44.7924 159.113 44.7124 159.366 44.619C159.62 44.5124 159.853 44.4124 160.066 44.319C160.28 44.2124 160.453 44.1257 160.586 44.059V37.379C160.586 37.259 160.613 37.1657 160.666 37.099C160.72 37.019 160.82 36.979 160.966 36.979H162.386C162.64 36.979 162.766 37.1124 162.766 37.379V46.399Z"
    fill="white"
  />
<path
    d="M144.5 33.899C144.5 33.6324 144.633 33.499 144.9 33.499H152.26C152.513 33.499 152.64 33.6257 152.64 33.879V35.119C152.64 35.359 152.507 35.479 152.24 35.479H146.78V38.919H151.62C151.887 38.919 152.02 39.039 152.02 39.279V40.519C152.02 40.759 151.887 40.879 151.62 40.879H146.78V44.819H152.38C152.62 44.819 152.74 44.9457 152.74 45.199V46.419C152.74 46.659 152.613 46.779 152.36 46.779H144.9C144.633 46.779 144.5 46.659 144.5 46.419V33.899Z"
    fill="white"
  />
<path
    d="M246.756 54.599C246.756 54.759 246.743 54.9123 246.716 55.059C246.69 55.1923 246.63 55.3123 246.536 55.419C246.456 55.5257 246.336 55.6123 246.176 55.679C246.03 55.7323 245.83 55.759 245.576 55.759C245.31 55.759 245.096 55.7257 244.936 55.659C244.79 55.5923 244.676 55.5057 244.596 55.399C244.516 55.2923 244.463 55.1723 244.436 55.039C244.41 54.8923 244.396 54.7457 244.396 54.599C244.396 54.279 244.47 54.0123 244.616 53.799C244.776 53.5723 245.096 53.459 245.576 53.459C246.07 53.459 246.39 53.5657 246.536 53.779C246.683 53.979 246.756 54.2523 246.756 54.599ZM246.636 66.619C246.636 66.7257 246.61 66.819 246.556 66.899C246.516 66.9657 246.423 66.999 246.276 66.999H244.856C244.59 66.999 244.456 66.8723 244.456 66.619V57.579C244.456 57.3257 244.59 57.199 244.856 57.199H246.276C246.423 57.199 246.516 57.239 246.556 57.319C246.61 57.3857 246.636 57.4723 246.636 57.579V66.619Z"
    fill="white"
  />
<path
    d="M242.51 66.619C242.51 66.739 242.483 66.8323 242.43 66.899C242.377 66.9657 242.277 66.999 242.13 66.999H240.69C240.437 66.999 240.31 66.8723 240.31 66.619L240.33 60.999C240.33 60.4123 240.23 59.939 240.03 59.579C239.843 59.219 239.463 59.039 238.89 59.039C238.69 59.039 238.457 59.0723 238.19 59.139C237.937 59.2057 237.677 59.2923 237.41 59.399C237.157 59.4923 236.917 59.5923 236.69 59.699C236.463 59.7923 236.283 59.8723 236.15 59.939V66.619C236.15 66.8723 236.023 66.999 235.77 66.999H234.35C234.097 66.999 233.97 66.8723 233.97 66.619V57.599C233.97 57.3323 234.097 57.199 234.35 57.199H235.77C236.023 57.199 236.15 57.3323 236.15 57.599V58.199C236.163 58.199 236.17 58.2057 236.17 58.219C236.183 58.219 236.197 58.219 236.21 58.219C236.397 58.0857 236.617 57.9523 236.87 57.819C237.137 57.6723 237.417 57.539 237.71 57.419C238.003 57.299 238.31 57.2057 238.63 57.139C238.95 57.059 239.263 57.019 239.57 57.019C240.25 57.019 240.783 57.1257 241.17 57.339C241.557 57.539 241.85 57.8123 242.05 58.159C242.25 58.5057 242.377 58.9123 242.43 59.379C242.483 59.8323 242.51 60.3123 242.51 60.819V66.619Z"
    fill="white"
  />
<path
    d="M232.521 61.939C232.521 62.5123 232.481 63.1057 232.401 63.719C232.335 64.3323 232.155 64.899 231.861 65.419C231.568 65.9257 231.128 66.3457 230.541 66.679C229.955 66.999 229.141 67.159 228.101 67.159C227.101 67.159 226.315 66.999 225.741 66.679C225.168 66.3457 224.735 65.9257 224.441 65.419C224.161 64.899 223.988 64.3323 223.921 63.719C223.855 63.1057 223.821 62.5123 223.821 61.939C223.821 61.4723 223.861 60.9523 223.941 60.379C224.035 59.8057 224.228 59.2723 224.521 58.779C224.815 58.2723 225.241 57.8523 225.801 57.519C226.375 57.1723 227.141 56.999 228.101 56.999C229.075 56.999 229.848 57.1457 230.421 57.439C231.008 57.7323 231.455 58.119 231.761 58.599C232.068 59.0657 232.268 59.5923 232.361 60.179C232.468 60.7657 232.521 61.3523 232.521 61.939ZM230.281 62.079C230.281 61.5457 230.255 61.0857 230.201 60.699C230.148 60.299 230.041 59.9723 229.881 59.719C229.721 59.4523 229.501 59.2523 229.221 59.119C228.941 58.9857 228.575 58.919 228.121 58.919C227.695 58.919 227.348 58.9857 227.081 59.119C226.815 59.2523 226.601 59.4523 226.441 59.719C226.295 59.9857 226.188 60.319 226.121 60.719C226.068 61.1057 226.041 61.559 226.041 62.079C226.041 62.6123 226.068 63.079 226.121 63.479C226.188 63.8657 226.295 64.1923 226.441 64.459C226.588 64.7123 226.795 64.9057 227.061 65.039C227.328 65.1723 227.675 65.239 228.101 65.239C228.555 65.239 228.921 65.179 229.201 65.059C229.495 64.9257 229.721 64.7323 229.881 64.479C230.041 64.2123 230.148 63.879 230.201 63.479C230.255 63.079 230.281 62.6123 230.281 62.079Z"
    fill="white"
  />
<path
    d="M222.1 54.599C222.1 54.759 222.087 54.9123 222.06 55.059C222.033 55.1923 221.973 55.3123 221.88 55.419C221.8 55.5257 221.68 55.6123 221.52 55.679C221.373 55.7323 221.173 55.759 220.92 55.759C220.653 55.759 220.44 55.7257 220.28 55.659C220.133 55.5923 220.02 55.5057 219.94 55.399C219.86 55.2923 219.807 55.1723 219.78 55.039C219.753 54.8923 219.74 54.7457 219.74 54.599C219.74 54.279 219.813 54.0123 219.96 53.799C220.12 53.5723 220.44 53.459 220.92 53.459C221.413 53.459 221.733 53.5657 221.88 53.779C222.027 53.979 222.1 54.2523 222.1 54.599ZM221.98 66.619C221.98 66.7257 221.953 66.819 221.9 66.899C221.86 66.9657 221.767 66.999 221.62 66.999H220.2C219.933 66.999 219.8 66.8723 219.8 66.619V57.579C219.8 57.3257 219.933 57.199 220.2 57.199H221.62C221.767 57.199 221.86 57.239 221.9 57.319C221.953 57.3857 221.98 57.4723 221.98 57.579V66.619Z"
    fill="white"
  />
<path
    d="M218.1 64.059C218.1 64.6457 217.987 65.139 217.76 65.539C217.533 65.9257 217.227 66.239 216.84 66.479C216.467 66.719 216.04 66.8923 215.56 66.999C215.08 67.1057 214.58 67.159 214.06 67.159C213.553 67.159 213.007 67.119 212.42 67.039C211.833 66.9723 211.347 66.8657 210.96 66.719C210.76 66.639 210.633 66.5523 210.58 66.459C210.527 66.3523 210.513 66.219 210.54 66.059L210.68 65.399C210.707 65.239 210.76 65.1457 210.84 65.119C210.92 65.079 211.04 65.0723 211.2 65.099C211.413 65.139 211.647 65.1723 211.9 65.199C212.167 65.2257 212.427 65.2523 212.68 65.279C212.947 65.2923 213.193 65.3057 213.42 65.319C213.66 65.3323 213.867 65.339 214.04 65.339C214.68 65.339 215.14 65.2523 215.42 65.079C215.7 64.8923 215.84 64.599 215.84 64.199C215.84 63.9723 215.813 63.7857 215.76 63.639C215.72 63.4923 215.64 63.3723 215.52 63.279C215.4 63.1857 215.233 63.1123 215.02 63.059C214.82 62.9923 214.56 62.939 214.24 62.899C213.747 62.8323 213.28 62.7457 212.84 62.639C212.4 62.5323 212.007 62.379 211.66 62.179C211.327 61.9657 211.06 61.6923 210.86 61.359C210.66 61.0123 210.56 60.5657 210.56 60.019C210.56 59.0323 210.907 58.2857 211.6 57.779C212.293 57.259 213.2 56.999 214.32 56.999C214.52 56.999 214.753 57.0057 215.02 57.019C215.287 57.0323 215.553 57.059 215.82 57.099C216.1 57.139 216.373 57.1857 216.64 57.239C216.907 57.2923 217.147 57.359 217.36 57.439C217.693 57.5723 217.833 57.7723 217.78 58.039L217.62 58.759C217.593 58.9057 217.54 58.999 217.46 59.039C217.393 59.0657 217.267 59.0657 217.08 59.039C216.653 58.9857 216.187 58.939 215.68 58.899C215.173 58.8457 214.733 58.819 214.36 58.819C213.72 58.819 213.293 58.9123 213.08 59.099C212.88 59.2723 212.78 59.5523 212.78 59.939C212.78 60.3257 212.907 60.579 213.16 60.699C213.427 60.819 213.867 60.9257 214.48 61.019C214.96 61.0857 215.413 61.1723 215.84 61.279C216.28 61.3857 216.667 61.5457 217 61.759C217.333 61.9723 217.6 62.259 217.8 62.619C218 62.979 218.1 63.459 218.1 64.059Z"
    fill="white"
  />
<path
    d="M209.36 64.059C209.36 64.6457 209.247 65.139 209.02 65.539C208.794 65.9257 208.487 66.239 208.1 66.479C207.727 66.719 207.3 66.8923 206.82 66.999C206.34 67.1057 205.84 67.159 205.32 67.159C204.814 67.159 204.267 67.119 203.68 67.039C203.094 66.9723 202.607 66.8657 202.22 66.719C202.02 66.639 201.894 66.5523 201.84 66.459C201.787 66.3523 201.774 66.219 201.8 66.059L201.94 65.399C201.967 65.239 202.02 65.1457 202.1 65.119C202.18 65.079 202.3 65.0723 202.46 65.099C202.674 65.139 202.907 65.1723 203.16 65.199C203.427 65.2257 203.687 65.2523 203.94 65.279C204.207 65.2923 204.454 65.3057 204.68 65.319C204.92 65.3323 205.127 65.339 205.3 65.339C205.94 65.339 206.4 65.2523 206.68 65.079C206.96 64.8923 207.1 64.599 207.1 64.199C207.1 63.9723 207.074 63.7857 207.02 63.639C206.98 63.4923 206.9 63.3723 206.78 63.279C206.66 63.1857 206.494 63.1123 206.28 63.059C206.08 62.9923 205.82 62.939 205.5 62.899C205.007 62.8323 204.54 62.7457 204.1 62.639C203.66 62.5323 203.267 62.379 202.92 62.179C202.587 61.9657 202.32 61.6923 202.12 61.359C201.92 61.0123 201.82 60.5657 201.82 60.019C201.82 59.0323 202.167 58.2857 202.86 57.779C203.554 57.259 204.46 56.999 205.58 56.999C205.78 56.999 206.014 57.0057 206.28 57.019C206.547 57.0323 206.814 57.059 207.08 57.099C207.36 57.139 207.634 57.1857 207.9 57.239C208.167 57.2923 208.407 57.359 208.62 57.439C208.954 57.5723 209.094 57.7723 209.04 58.039L208.88 58.759C208.854 58.9057 208.8 58.999 208.72 59.039C208.654 59.0657 208.527 59.0657 208.34 59.039C207.914 58.9857 207.447 58.939 206.94 58.899C206.434 58.8457 205.994 58.819 205.62 58.819C204.98 58.819 204.554 58.9123 204.34 59.099C204.14 59.2723 204.04 59.5523 204.04 59.939C204.04 60.3257 204.167 60.579 204.42 60.699C204.687 60.819 205.127 60.9257 205.74 61.019C206.22 61.0857 206.674 61.1723 207.1 61.279C207.54 61.3857 207.927 61.5457 208.26 61.759C208.594 61.9723 208.86 62.259 209.06 62.619C209.26 62.979 209.36 63.459 209.36 64.059Z"
    fill="white"
  />
<path
    d="M200.119 54.599C200.119 54.759 200.106 54.9123 200.079 55.059C200.052 55.1923 199.992 55.3123 199.899 55.419C199.819 55.5257 199.699 55.6123 199.539 55.679C199.392 55.7323 199.192 55.759 198.939 55.759C198.672 55.759 198.459 55.7257 198.299 55.659C198.152 55.5923 198.039 55.5057 197.959 55.399C197.879 55.2923 197.826 55.1723 197.799 55.039C197.772 54.8923 197.759 54.7457 197.759 54.599C197.759 54.279 197.832 54.0123 197.979 53.799C198.139 53.5723 198.459 53.459 198.939 53.459C199.432 53.459 199.752 53.5657 199.899 53.779C200.046 53.979 200.119 54.2523 200.119 54.599ZM199.999 66.619C199.999 66.7257 199.972 66.819 199.919 66.899C199.879 66.9657 199.786 66.999 199.639 66.999H198.219C197.952 66.999 197.819 66.8723 197.819 66.619V57.579C197.819 57.3257 197.952 57.199 198.219 57.199H199.639C199.786 57.199 199.879 57.239 199.919 57.319C199.972 57.3857 199.999 57.4723 199.999 57.579V66.619Z"
    fill="white"
  />
<path
    d="M195.815 66.619C195.815 66.739 195.788 66.8323 195.735 66.899C195.695 66.9657 195.601 66.999 195.455 66.999H194.015C193.761 66.999 193.635 66.8723 193.635 66.619V60.939C193.635 60.1923 193.535 59.6923 193.335 59.439C193.135 59.1723 192.781 59.039 192.275 59.039C192.088 59.039 191.875 59.0723 191.635 59.139C191.408 59.2057 191.175 59.2857 190.935 59.379C190.708 59.459 190.488 59.5523 190.275 59.659C190.061 59.7657 189.875 59.859 189.715 59.939C189.715 60.0457 189.715 60.1857 189.715 60.359C189.728 60.5323 189.735 60.7323 189.735 60.959V66.619C189.735 66.739 189.708 66.8323 189.655 66.899C189.601 66.9657 189.501 66.999 189.355 66.999H187.895C187.668 66.999 187.555 66.8723 187.555 66.619V60.839C187.555 60.2257 187.461 59.7723 187.275 59.479C187.088 59.1857 186.741 59.039 186.235 59.039C186.061 59.039 185.861 59.0657 185.635 59.119C185.421 59.1723 185.195 59.2457 184.955 59.339C184.728 59.4323 184.501 59.5323 184.275 59.639C184.048 59.7457 183.841 59.8457 183.655 59.939V66.619C183.655 66.8723 183.528 66.999 183.275 66.999H181.835C181.595 66.999 181.475 66.8723 181.475 66.619V57.599C181.475 57.3323 181.595 57.199 181.835 57.199H183.255C183.521 57.199 183.655 57.3323 183.655 57.599V58.179L183.675 58.199C183.875 58.0657 184.088 57.9323 184.315 57.799C184.541 57.6523 184.781 57.5257 185.035 57.419C185.301 57.3123 185.568 57.2257 185.835 57.159C186.101 57.079 186.375 57.0323 186.655 57.019C187.228 57.019 187.748 57.1123 188.215 57.299C188.695 57.4723 189.088 57.8457 189.395 58.419C189.901 58.0457 190.455 57.719 191.055 57.439C191.655 57.159 192.275 57.019 192.915 57.019C193.568 57.019 194.088 57.119 194.475 57.319C194.861 57.519 195.155 57.7923 195.355 58.139C195.555 58.4723 195.681 58.8657 195.735 59.319C195.788 59.7723 195.815 60.2457 195.815 60.739V66.619Z"
    fill="white"
  />
<path
    d="M179.77 66.619C179.77 66.739 179.744 66.8323 179.69 66.899C179.65 66.9657 179.557 66.999 179.41 66.999H177.97C177.717 66.999 177.59 66.8723 177.59 66.619V60.939C177.59 60.1923 177.49 59.6923 177.29 59.439C177.09 59.1723 176.737 59.039 176.23 59.039C176.044 59.039 175.83 59.0723 175.59 59.139C175.364 59.2057 175.13 59.2857 174.89 59.379C174.664 59.459 174.444 59.5523 174.23 59.659C174.017 59.7657 173.83 59.859 173.67 59.939C173.67 60.0457 173.67 60.1857 173.67 60.359C173.684 60.5323 173.69 60.7323 173.69 60.959V66.619C173.69 66.739 173.664 66.8323 173.61 66.899C173.557 66.9657 173.457 66.999 173.31 66.999H171.85C171.624 66.999 171.51 66.8723 171.51 66.619V60.839C171.51 60.2257 171.417 59.7723 171.23 59.479C171.044 59.1857 170.697 59.039 170.19 59.039C170.017 59.039 169.817 59.0657 169.59 59.119C169.377 59.1723 169.15 59.2457 168.91 59.339C168.684 59.4323 168.457 59.5323 168.23 59.639C168.004 59.7457 167.797 59.8457 167.61 59.939V66.619C167.61 66.8723 167.484 66.999 167.23 66.999H165.79C165.55 66.999 165.43 66.8723 165.43 66.619V57.599C165.43 57.3323 165.55 57.199 165.79 57.199H167.21C167.477 57.199 167.61 57.3323 167.61 57.599V58.179L167.63 58.199C167.83 58.0657 168.044 57.9323 168.27 57.799C168.497 57.6523 168.737 57.5257 168.99 57.419C169.257 57.3123 169.524 57.2257 169.79 57.159C170.057 57.079 170.33 57.0323 170.61 57.019C171.184 57.019 171.704 57.1123 172.17 57.299C172.65 57.4723 173.044 57.8457 173.35 58.419C173.857 58.0457 174.41 57.719 175.01 57.439C175.61 57.159 176.23 57.019 176.87 57.019C177.524 57.019 178.044 57.119 178.43 57.319C178.817 57.519 179.11 57.7923 179.31 58.139C179.51 58.4723 179.637 58.8657 179.69 59.319C179.744 59.7723 179.77 60.2457 179.77 60.739V66.619Z"
    fill="white"
  />
<path
    d="M163.922 61.939C163.922 62.5123 163.882 63.1057 163.802 63.719C163.735 64.3323 163.555 64.899 163.262 65.419C162.968 65.9257 162.528 66.3457 161.942 66.679C161.355 66.999 160.542 67.159 159.502 67.159C158.502 67.159 157.715 66.999 157.142 66.679C156.568 66.3457 156.135 65.9257 155.842 65.419C155.562 64.899 155.388 64.3323 155.322 63.719C155.255 63.1057 155.222 62.5123 155.222 61.939C155.222 61.4723 155.262 60.9523 155.342 60.379C155.435 59.8057 155.628 59.2723 155.922 58.779C156.215 58.2723 156.642 57.8523 157.202 57.519C157.775 57.1723 158.542 56.999 159.502 56.999C160.475 56.999 161.248 57.1457 161.822 57.439C162.408 57.7323 162.855 58.119 163.162 58.599C163.468 59.0657 163.668 59.5923 163.762 60.179C163.868 60.7657 163.922 61.3523 163.922 61.939ZM161.682 62.079C161.682 61.5457 161.655 61.0857 161.602 60.699C161.548 60.299 161.442 59.9723 161.282 59.719C161.122 59.4523 160.902 59.2523 160.622 59.119C160.342 58.9857 159.975 58.919 159.522 58.919C159.095 58.919 158.748 58.9857 158.482 59.119C158.215 59.2523 158.002 59.4523 157.842 59.719C157.695 59.9857 157.588 60.319 157.522 60.719C157.468 61.1057 157.442 61.559 157.442 62.079C157.442 62.6123 157.468 63.079 157.522 63.479C157.588 63.8657 157.695 64.1923 157.842 64.459C157.988 64.7123 158.195 64.9057 158.462 65.039C158.728 65.1723 159.075 65.239 159.502 65.239C159.955 65.239 160.322 65.179 160.602 65.059C160.895 64.9257 161.122 64.7323 161.282 64.479C161.442 64.2123 161.548 63.879 161.602 63.479C161.655 63.079 161.682 62.6123 161.682 62.079Z"
    fill="white"
  />
<path
    d="M146.8 60.119L148.32 58.159L151.68 54.019C151.773 53.9123 151.867 53.839 151.96 53.799C152.053 53.7457 152.18 53.719 152.34 53.719H154.16C154.307 53.719 154.393 53.759 154.42 53.839C154.46 53.919 154.433 54.0123 154.34 54.119L150 59.399L154.48 66.579C154.56 66.7123 154.573 66.819 154.52 66.899C154.467 66.9657 154.387 66.999 154.28 66.999H152.44C152.267 66.999 152.133 66.9657 152.04 66.899C151.96 66.8323 151.88 66.739 151.8 66.619L148.52 61.179L146.76 63.359V66.619C146.76 66.7257 146.733 66.819 146.68 66.899C146.64 66.9657 146.547 66.999 146.4 66.999H144.9C144.633 66.999 144.5 66.8723 144.5 66.619V54.119C144.5 53.8523 144.633 53.719 144.9 53.719H146.4C146.547 53.719 146.64 53.759 146.68 53.839C146.733 53.9057 146.76 53.999 146.76 54.119V60.119H146.8Z"
    fill="white"
  />
<path
    fill-rule="evenodd"
    clip-rule="evenodd"
    d="M254.3 66.7H257.6V28H254.3V66.7Z"
    fill="white"
  />
<path
    d="M29.0595 64.8952H84.7641L84.759 28.8345L29.0544 28.8395L29.0595 64.8952Z"
    fill="#003399"
  />
<path
    d="M57.4401 33.3799H59.4717L57.8331 34.644L58.4712 36.6462L56.8429 35.4125L55.2146 36.6462L55.8526 34.644L54.2039 33.3799H56.2303L56.8429 31.4282L57.4401 33.3799Z"
    fill="#FFED00"
  />
<path
    d="M57.5116 59.1564H59.5431L57.9097 60.3749L58.5427 62.3013L56.9143 61.1131L55.286 62.3013L55.9292 60.3749L54.2754 59.1564H56.3018L56.9143 57.2805L57.5116 59.1564Z"
    fill="#FFED00"
  />
<path
    d="M63.9482 57.4524H65.9849L64.3464 58.6659L64.9844 60.5923L63.351 59.4041L61.7227 60.5923L62.3659 58.6659L60.712 57.4524H62.7385L63.351 55.5715L63.9482 57.4524Z"
    fill="#FFED00"
  />
<path
    d="M63.9482 35.099H65.9849L64.3464 36.3175L64.9844 38.2439L63.351 37.0557L61.7227 38.2439L62.3659 36.3175L60.712 35.099H62.7385L63.351 33.2231L63.9482 35.099Z"
    fill="#FFED00"
  />
<path
    d="M68.7311 39.8367H70.7575L69.1241 41.0502L69.7571 42.9766L68.1288 41.7884L66.5005 42.9766L67.1436 41.0502L65.4898 39.8367H67.5162L68.1288 37.9558L68.7311 39.8367Z"
    fill="#FFED00"
  />
<path
    d="M68.7311 52.7805H70.7575L69.1241 53.999L69.7571 55.9255L68.1288 54.7373L66.5005 55.9255L67.1436 53.999L65.4898 52.7805H67.5162L68.1288 50.9047L68.7311 52.7805Z"
    fill="#FFED00"
  />
<path
    d="M70.5176 46.2075H72.5543L70.9158 47.426L71.5487 49.3525L69.9204 48.1643L68.2921 49.3525L68.9353 47.426L67.2814 46.2075H69.3079L69.9204 44.3317L70.5176 46.2075Z"
    fill="#FFED00"
  />
<path
    d="M50.8809 35.1193H52.9074L51.274 36.3328L51.9069 38.2592L50.2786 37.071L48.6503 38.2592L49.2934 36.3328L47.6447 35.1193H49.6661L50.2786 33.2384L50.8809 35.1193Z"
    fill="#FFED00"
  />
<path
    d="M46.2308 39.8517H48.2674L46.6289 41.0652L47.2619 42.9916L45.6336 41.8034L44.0052 42.9916L44.6484 41.0652L42.9946 39.8517H45.021L45.6336 37.9708L46.2308 39.8517Z"
    fill="#FFED00"
  />
<path
    d="M44.5055 46.2277H46.537L44.9036 47.4412L45.5366 49.3676L43.9083 48.1844L42.28 49.3676L42.9231 47.4412L41.2744 46.2277H43.2957L43.9083 44.3468L44.5055 46.2277Z"
    fill="#FFED00"
  />
<path
    d="M46.2308 52.7956H48.2674L46.6289 54.0142L47.2619 55.9406L45.6336 54.7524L44.0052 55.9406L44.6484 54.0142L42.9946 52.7956H45.021L45.6336 50.9198L46.2308 52.7956Z"
    fill="#FFED00"
  />
<path
    d="M50.9473 57.4676H52.9737L51.3403 58.6811L51.9733 60.6075L50.3449 59.4193L48.7166 60.6075L49.3598 58.6811L47.7111 57.4676H49.7324L50.3449 55.5867L50.9473 57.4676Z"
    fill="#FFED00"
  />
<path
    d="M94.9372 0.0040807C94.9372 0.0040807 106.917 18.9091 109.112 22.3726C111.302 25.8361 113.808 28.5816 122.675 30.4423C131.541 32.303 135.4 33.1827 135.4 33.1827V33.8552C135.4 33.8552 129.765 32.667 122.516 31.0642C115.268 29.4614 112.302 28.9204 109 24.3648C106.249 20.5726 94.9372 3.61419 94.9372 3.61419V-0.000976562V0.0040807Z"
    fill="white"
  />
<path
    d="M94.9372 21.5939C94.9372 21.5939 105.845 32.9147 109 36.1658C112.348 39.6142 116.631 40.8883 122.573 41.94C128.244 42.9411 135.395 44.099 135.395 44.099V44.7361C135.395 44.7361 128.677 43.6439 122.573 42.6125C116.585 41.5962 112.394 41.0299 108.964 37.9001C105.891 35.099 94.9372 24.9209 94.9372 24.9209V21.5889V21.5939Z"
    fill="white"
  />
<path
    d="M94.9372 26.6956C94.9372 26.6956 105.309 36.2366 109 39.4979C112.394 42.4962 115.146 43.4316 122.608 44.7411C130.071 46.0507 135.395 46.8647 135.395 46.8647V47.5372C135.395 47.5372 128.642 46.44 122.573 45.4793C116.503 44.5237 112.634 44.1445 109 41.2271C104.809 37.8597 94.9372 29.8102 94.9372 29.8102V26.6906V26.6956Z"
    fill="white"
  />
<path
    d="M94.9372 32.1311C94.9372 32.1311 106.785 41.4446 109 43.0727C111.215 44.7008 114.145 46.6019 122.644 47.8204C131.071 49.0289 135.395 49.6255 135.395 49.6255V50.3334C135.395 50.3334 127.754 49.2362 122.644 48.5991C117.535 47.962 113.619 47.689 109.036 44.6654C104.574 41.7227 94.9372 35.003 94.9372 35.003V32.1311Z"
    fill="white"
  />
<path
    d="M94.9372 37.3591C94.9372 37.3591 106.82 45.1962 109.071 46.44C111.322 47.6788 113.967 49.7013 122.644 50.7985C131.322 51.8957 135.395 52.3912 135.395 52.3912V53.0636C135.395 53.0636 128.218 52.285 122.608 51.6833C117.004 51.0816 113.18 50.2676 109 47.9973C104.819 45.7322 94.9372 40.0086 94.9372 40.0086V37.3591Z"
    fill="white"
  />
<path
    d="M94.9372 42.5873C94.9372 42.5873 105.442 48.2503 109 50.0149C112.966 51.9868 116.396 52.9323 122.608 53.6654C128.708 54.3834 135.395 55.0812 135.395 55.0812V55.7182C135.395 55.7182 129.213 55.0609 122.608 54.4441C116.059 53.8272 113.727 53.5441 109 51.466C104.773 49.6053 94.9372 45.0649 94.9372 45.0649V42.5823V42.5873Z"
    fill="white"
  />
<path
    d="M94.9372 47.8861C94.9372 47.8861 103.237 51.4052 109.071 53.7007C114.809 55.9558 119.193 56.1479 122.68 56.5372C124.216 56.7091 135.395 57.8468 135.395 57.8468V58.4839C135.395 58.4839 128.718 57.953 122.644 57.4221C116.57 56.8912 113.951 56.6636 109.036 55.0507C104.059 53.4125 94.9372 50.2625 94.9372 50.2625V47.8912V47.8861Z"
    fill="white"
  />
<path
    d="M94.9372 53.2911C94.9372 53.2911 103.319 55.8647 109.036 57.3513C114.753 58.8378 120 59.4445 122.644 59.6164C125.288 59.7934 135.4 60.6074 135.4 60.6074V61.2091C135.4 61.2091 129.647 60.8198 122.608 60.3243C116.917 59.9249 112.348 59.5001 109 58.767C105.294 57.958 94.9372 55.5209 94.9372 55.5209V53.2911Z"
    fill="white"
  />
<path
    d="M94.9372 58.6052C94.9372 58.6052 101.792 59.7783 109.036 60.9665C114.467 61.8563 121.822 62.4176 122.608 62.453C123.394 62.4884 135.395 63.3024 135.395 63.3024V63.9395C135.395 63.9395 127.713 63.5451 122.608 63.267C117.29 62.9738 112.001 62.6552 109 62.3468C102.272 61.6541 94.9372 60.7339 94.9372 60.7339V58.6052Z"
    fill="white"
  />
<path
    d="M94.9372 64.1064C94.9372 64.1064 105.748 64.5109 109.036 64.5817C112.323 64.6525 135.395 65.5727 135.395 65.5727V66.1947H94.9372V64.1064Z"
    fill="white"
  />
<path
    d="M122.603 33.3648C112.818 31.2766 110.603 27.7322 108.959 25.5378C107.315 23.3384 94.9321 5.41418 94.9321 5.41418V8.71082C95.4222 9.34284 106.019 23.8339 108.995 27.626C112.348 31.8985 117.601 32.8693 122.603 33.9311C127.6 34.9929 135.395 36.4743 135.395 36.4743V35.908C135.395 35.908 125.135 33.9007 122.603 33.3648Z"
    fill="white"
  />
<path
    d="M122.603 36.2013C114.569 34.644 111.317 32.126 108.959 29.0822C106.601 26.0333 94.9321 10.4451 94.9321 10.4451V14.2777C95.4222 14.849 106.096 27.7524 108.959 30.9985C112.297 34.7855 116.958 35.7816 122.603 36.808C128.249 37.8344 135.39 39.1794 135.39 39.1794V38.6131C135.39 38.6131 127.238 37.1013 122.603 36.2063V36.2013Z"
    fill="white"
  />
<path
    d="M122.603 39.139C114.247 37.5311 112.532 36.2114 108.995 32.3738C106.769 29.962 95.4119 16.6794 94.9321 16.1182V19.6575C94.9321 19.6575 105.544 30.8721 108.959 34.1839C113.436 38.5322 117.637 38.8609 122.603 39.7457C127.57 40.6305 135.39 42.0463 135.39 42.0463V41.4446C135.39 41.4446 125.947 39.7862 122.603 39.144V39.139Z"
    fill="white"
  />
<path
    d="M0.00510552 27.7777C0.00510552 27.7777 27.6711 24.8552 35.4196 23.7782C47.6702 22.0794 57.6953 20.2692 66.9701 6.18777C66.9701 6.18777 66.9803 5.3889 66.9701 5.02991C61.2889 13.59 53.4536 19.4299 42.6628 21.1237C32.1222 22.7822 0 25.2041 0 25.2041V27.7777H0.00510552Z"
    fill="white"
  />
<path
    d="M0.00512695 24.2838C0.00512695 24.2838 25.6447 21.1035 34.0925 19.9304C47.4559 18.0799 56.8531 16.4164 66.9701 1.05571C66.9701 1.05571 66.9752 0.393354 66.9701 0.00402832C60.7733 9.3428 53.1218 15.3748 41.351 17.2254C29.8507 19.0355 0.00512695 21.6748 0.00512695 21.6748V24.2889V24.2838Z"
    fill="white"
  />
<path d="M26.1806 64.1316H0.0204468V66.1844H26.1806V64.1316Z" fill="white" />
<path
    d="M66.9701 22.5698C66.9701 22.5698 66.9854 21.3614 66.9803 21.1035C65.7501 22.9591 64.132 24.6428 62.2638 26.1243H64.0963C65.1274 25.0726 66.0921 23.8945 66.965 22.5698H66.9701Z"
    fill="white"
  />
<path
    d="M66.9701 17.1092C66.9701 17.1092 66.9803 16.0373 66.9752 15.744C64.0095 20.2137 59.5942 23.7834 54.4897 26.1496L57.5014 26.1395C60.9826 24.1322 64.2188 21.2805 66.965 17.1092H66.9701Z"
    fill="white"
  />
<path
    d="M66.9701 11.6484C66.9701 11.6484 66.9803 10.713 66.9701 10.3894C61.8095 18.1709 53.7853 23.495 43.9746 25.0372C41.6521 25.4012 37.8697 25.8057 33.4748 26.2153L45.4549 26.1748C53.3617 24.4304 60.7631 21.058 66.9599 11.6484H66.9701Z"
    fill="white"
  />
<path
    d="M26.1857 60.6732C12.8377 60.744 0.0204468 60.7996 0.0204468 60.7996V62.9384C0.0204468 62.9384 13.4451 62.8423 26.1857 62.7361V60.6732Z"
    fill="white"
  />
<path
    d="M26.1857 57.0024C12.9295 57.1491 0.0153503 57.2603 0.0153503 57.2603V59.4446C0.0153503 59.4446 13.5778 59.2676 26.1857 59.0704V57.0024Z"
    fill="white"
  />
<path
    d="M26.1806 53.3215C13.0214 53.5491 0.0153503 53.721 0.0153503 53.721V55.9507C0.0153503 55.9507 13.7207 55.6828 26.1806 55.3895V53.3215Z"
    fill="white"
  />
<path
    d="M26.1857 49.6204C13.1235 49.939 0.0153503 50.1766 0.0153503 50.1766V52.4468C0.0153503 52.4468 13.879 52.0727 26.1857 51.6833V49.6154V49.6204Z"
    fill="white"
  />
<path
    d="M26.1908 45.9092C13.2256 46.3187 0.0153503 46.6423 0.0153503 46.6423V48.9581C0.0153503 48.9581 14.0474 48.4727 26.1908 47.9772V45.9142V45.9092Z"
    fill="white"
  />
<path
    d="M26.1857 42.1828C13.3226 42.6985 0.0153503 43.103 0.0153503 43.103V45.4592C0.0153503 45.4592 14.221 44.8423 26.1857 44.2305V42.1777V42.1828Z"
    fill="white"
  />
<path
    d="M26.1908 38.431C13.4247 39.058 0.0102234 39.5586 0.0102234 39.5586V41.9602C0.0102234 41.9602 14.4047 41.1968 26.1908 40.4636V38.431Z"
    fill="white"
  />
<path
    d="M26.1908 34.6592C13.5216 35.4075 0.0102234 36.0193 0.0102234 36.0193V38.4614C0.0102234 38.4614 14.5987 37.5311 26.1908 36.6715V34.6592Z"
    fill="white"
  />
<path
    d="M26.1908 30.8671C13.6084 31.7468 0.0102234 32.485 0.0102234 32.485V34.9727C0.0102234 34.9727 14.7926 33.8502 26.1908 32.8592V30.8721V30.8671Z"
    fill="white"
  />
<path
    d="M26.1908 27.0394C13.685 28.0658 0.00512695 28.9406 0.00512695 28.9406V31.4686C0.00512695 31.4686 14.9866 30.1237 26.1908 28.9911V27.0394Z"
    fill="white"
  />
<path
    d="M86.0759 66.1896V27.5452H27.7527V66.1896H86.0759ZM84.759 28.8345V64.8952H29.0544V28.8395H84.759V28.8345Z"
    fill="white"
  />
</svg>
