<svg
  width="291"
  height="72"
  viewBox="0 0 291 72"
  fill="none"
  xmlns="http://www.w3.org/2000/svg"
>
<path
    d="M197.895 42.319H195.455C194.948 42.319 194.548 42.439 194.255 42.679C193.962 42.9057 193.815 43.3457 193.815 43.999C193.815 44.439 193.902 44.7457 194.075 44.919C194.262 45.079 194.588 45.159 195.055 45.159C195.268 45.159 195.502 45.1324 195.755 45.079C196.008 45.0257 196.262 44.9524 196.515 44.859C196.768 44.7657 197.015 44.6657 197.255 44.559C197.495 44.439 197.708 44.3257 197.895 44.219V42.319ZM198.015 45.639C197.508 46.0257 196.935 46.339 196.295 46.579C195.668 46.819 195.015 46.939 194.335 46.939C193.802 46.939 193.355 46.8724 192.995 46.739C192.648 46.5924 192.368 46.399 192.155 46.159C191.955 45.9057 191.808 45.6057 191.715 45.259C191.635 44.9124 191.595 44.5257 191.595 44.099C191.582 42.9257 191.888 42.079 192.515 41.559C193.142 41.0257 194.088 40.759 195.355 40.759H197.915V40.239C197.915 39.9457 197.882 39.699 197.815 39.499C197.762 39.2857 197.655 39.1124 197.495 38.979C197.335 38.8457 197.122 38.7524 196.855 38.699C196.588 38.6457 196.248 38.619 195.835 38.619C195.675 38.619 195.475 38.6257 195.235 38.639C195.008 38.6524 194.768 38.6657 194.515 38.679C194.275 38.6924 194.028 38.7124 193.775 38.739C193.535 38.7657 193.315 38.7857 193.115 38.799C192.915 38.8257 192.775 38.8324 192.695 38.819C192.628 38.7924 192.582 38.7057 192.555 38.559L192.375 37.819C192.348 37.6857 192.362 37.579 192.415 37.499C192.468 37.4057 192.608 37.3124 192.835 37.219C193.048 37.139 193.302 37.0724 193.595 37.019C193.888 36.9657 194.188 36.9257 194.495 36.899C194.802 36.859 195.102 36.8324 195.395 36.819C195.702 36.7924 195.975 36.779 196.215 36.779C197.082 36.779 197.768 36.8657 198.275 37.039C198.795 37.2124 199.188 37.459 199.455 37.779C199.722 38.0857 199.895 38.4657 199.975 38.919C200.055 39.3724 200.095 39.879 200.095 40.439V44.299C200.095 44.499 200.102 44.659 200.115 44.779C200.142 44.8857 200.175 44.9724 200.215 45.039C200.268 45.0924 200.342 45.1324 200.435 45.159C200.528 45.1857 200.655 45.2057 200.815 45.219C200.962 45.2324 201.062 45.259 201.115 45.299C201.168 45.339 201.195 45.4124 201.195 45.519V46.359C201.195 46.5857 201.035 46.7257 200.715 46.779C200.555 46.8057 200.395 46.8257 200.235 46.839C200.075 46.8657 199.922 46.879 199.775 46.879C199.308 46.879 198.928 46.7924 198.635 46.619C198.355 46.4457 198.162 46.1257 198.055 45.659L198.015 45.639Z"
    fill="#6D6E70"
  />
<path
    d="M190.485 41.819C190.485 42.6324 190.425 43.359 190.305 43.999C190.185 44.639 189.972 45.179 189.665 45.619C189.372 46.059 188.965 46.3924 188.445 46.619C187.939 46.8457 187.292 46.959 186.505 46.959C186.172 46.959 185.785 46.9257 185.345 46.859C184.919 46.7924 184.472 46.679 184.005 46.519L183.985 46.539V50.059C183.985 50.1657 183.959 50.259 183.905 50.339C183.865 50.419 183.765 50.459 183.605 50.459H182.185C182.025 50.459 181.919 50.4257 181.865 50.359C181.825 50.2924 181.805 50.1924 181.805 50.059V37.379C181.805 37.1124 181.932 36.979 182.185 36.979H183.605C183.752 36.979 183.845 37.019 183.885 37.099C183.939 37.1657 183.965 37.259 183.965 37.379V37.979L184.025 38.019C184.199 37.899 184.405 37.7724 184.645 37.639C184.899 37.4924 185.165 37.359 185.445 37.239C185.725 37.119 186.012 37.019 186.305 36.939C186.599 36.859 186.892 36.819 187.185 36.819C187.839 36.819 188.379 36.939 188.805 37.179C189.232 37.419 189.565 37.759 189.805 38.199C190.059 38.6257 190.232 39.1457 190.325 39.759C190.432 40.3724 190.485 41.059 190.485 41.819ZM188.225 41.799C188.225 41.159 188.192 40.6457 188.125 40.259C188.072 39.8724 187.979 39.5724 187.845 39.359C187.712 39.1457 187.545 39.0057 187.345 38.939C187.159 38.859 186.932 38.819 186.665 38.819C186.465 38.819 186.239 38.8524 185.985 38.919C185.732 38.9857 185.479 39.0657 185.225 39.159C184.985 39.239 184.752 39.3324 184.525 39.439C184.312 39.5457 184.132 39.639 183.985 39.719V44.719C184.439 44.8524 184.845 44.9457 185.205 44.999C185.579 45.039 185.939 45.059 186.285 45.059C186.645 45.059 186.945 45.0124 187.185 44.919C187.439 44.8124 187.639 44.6324 187.785 44.379C187.945 44.1257 188.059 43.7924 188.125 43.379C188.192 42.9524 188.225 42.4257 188.225 41.799Z"
    fill="#6D6E70"
  />
<path
    d="M180.317 41.719C180.317 42.2924 180.277 42.8857 180.197 43.499C180.13 44.1124 179.95 44.679 179.657 45.199C179.363 45.7057 178.923 46.1257 178.337 46.459C177.75 46.779 176.937 46.939 175.897 46.939C174.897 46.939 174.11 46.779 173.537 46.459C172.963 46.1257 172.53 45.7057 172.237 45.199C171.957 44.679 171.783 44.1124 171.717 43.499C171.65 42.8857 171.617 42.2924 171.617 41.719C171.617 41.2524 171.657 40.7324 171.737 40.159C171.83 39.5857 172.023 39.0524 172.317 38.559C172.61 38.0524 173.037 37.6324 173.597 37.299C174.17 36.9524 174.937 36.779 175.897 36.779C176.87 36.779 177.643 36.9257 178.217 37.219C178.803 37.5124 179.25 37.899 179.557 38.379C179.863 38.8457 180.063 39.3724 180.157 39.959C180.263 40.5457 180.317 41.1324 180.317 41.719ZM178.077 41.859C178.077 41.3257 178.05 40.8657 177.997 40.479C177.943 40.079 177.837 39.7524 177.677 39.499C177.517 39.2324 177.297 39.0324 177.017 38.899C176.737 38.7657 176.37 38.699 175.917 38.699C175.49 38.699 175.143 38.7657 174.877 38.899C174.61 39.0324 174.397 39.2324 174.237 39.499C174.09 39.7657 173.983 40.099 173.917 40.499C173.863 40.8857 173.837 41.339 173.837 41.859C173.837 42.3924 173.863 42.859 173.917 43.259C173.983 43.6457 174.09 43.9724 174.237 44.239C174.383 44.4924 174.59 44.6857 174.857 44.819C175.123 44.9524 175.47 45.019 175.897 45.019C176.35 45.019 176.717 44.959 176.997 44.839C177.29 44.7057 177.517 44.5124 177.677 44.259C177.837 43.9924 177.943 43.659 177.997 43.259C178.05 42.859 178.077 42.3924 178.077 41.859Z"
    fill="#6D6E70"
  />
<path
    d="M167.531 46.399C167.531 46.6524 167.405 46.779 167.151 46.779H165.711C165.458 46.779 165.331 46.6524 165.331 46.399V37.379C165.331 37.1124 165.458 36.979 165.711 36.979H167.131C167.398 36.979 167.531 37.1124 167.531 37.379V38.259L167.571 38.299C167.718 38.1657 167.911 38.0257 168.151 37.879C168.391 37.719 168.645 37.579 168.911 37.459C169.191 37.3257 169.471 37.2057 169.751 37.099C170.031 36.9924 170.291 36.919 170.531 36.879C170.665 36.8524 170.771 36.859 170.851 36.899C170.931 36.939 170.985 37.0457 171.011 37.219L171.151 38.559C171.165 38.7057 171.158 38.8124 171.131 38.879C171.105 38.9457 170.985 38.999 170.771 39.039C170.491 39.0924 170.198 39.159 169.891 39.239C169.585 39.3057 169.285 39.3857 168.991 39.479C168.698 39.559 168.425 39.639 168.171 39.719C167.918 39.799 167.705 39.879 167.531 39.959V46.399Z"
    fill="#6D6E70"
  />
<path
    d="M163.266 46.399C163.266 46.6524 163.14 46.779 162.886 46.779H161.466C161.32 46.779 161.22 46.7457 161.166 46.679C161.113 46.6124 161.086 46.519 161.086 46.399V45.779L161.046 45.759C160.846 45.8924 160.613 46.0324 160.346 46.179C160.093 46.3124 159.82 46.439 159.526 46.559C159.233 46.679 158.926 46.7724 158.606 46.839C158.3 46.919 157.993 46.959 157.686 46.959C157.006 46.959 156.466 46.8657 156.066 46.679C155.68 46.4924 155.386 46.2324 155.186 45.899C154.986 45.5657 154.86 45.1724 154.806 44.719C154.753 44.2657 154.726 43.779 154.726 43.259V37.379C154.726 37.1124 154.853 36.979 155.106 36.979H156.566C156.806 36.979 156.926 37.1124 156.926 37.379V42.999C156.926 43.3057 156.946 43.579 156.986 43.819C157.026 44.059 157.1 44.2657 157.206 44.439C157.313 44.599 157.46 44.7257 157.646 44.819C157.833 44.9124 158.08 44.959 158.386 44.959C158.6 44.959 158.833 44.9257 159.086 44.859C159.353 44.7924 159.613 44.7124 159.866 44.619C160.12 44.5124 160.353 44.4124 160.566 44.319C160.78 44.2124 160.953 44.1257 161.086 44.059V37.379C161.086 37.259 161.113 37.1657 161.166 37.099C161.22 37.019 161.32 36.979 161.466 36.979H162.886C163.14 36.979 163.266 37.1124 163.266 37.379V46.399Z"
    fill="#6D6E70"
  />
<path
    d="M145 33.899C145 33.6324 145.133 33.499 145.4 33.499H152.76C153.013 33.499 153.14 33.6257 153.14 33.879V35.119C153.14 35.359 153.007 35.479 152.74 35.479H147.28V38.919H152.12C152.387 38.919 152.52 39.039 152.52 39.279V40.519C152.52 40.759 152.387 40.879 152.12 40.879H147.28V44.819H152.88C153.12 44.819 153.24 44.9457 153.24 45.199V46.419C153.24 46.659 153.113 46.779 152.86 46.779H145.4C145.133 46.779 145 46.659 145 46.419V33.899Z"
    fill="#6D6E70"
  />
<path
    d="M247.256 54.599C247.256 54.759 247.243 54.9123 247.216 55.059C247.19 55.1923 247.13 55.3123 247.036 55.419C246.956 55.5257 246.836 55.6123 246.676 55.679C246.53 55.7323 246.33 55.759 246.076 55.759C245.81 55.759 245.596 55.7257 245.436 55.659C245.29 55.5923 245.176 55.5057 245.096 55.399C245.016 55.2923 244.963 55.1723 244.936 55.039C244.91 54.8923 244.896 54.7457 244.896 54.599C244.896 54.279 244.97 54.0123 245.116 53.799C245.276 53.5723 245.596 53.459 246.076 53.459C246.57 53.459 246.89 53.5657 247.036 53.779C247.183 53.979 247.256 54.2523 247.256 54.599ZM247.136 66.619C247.136 66.7257 247.11 66.819 247.056 66.899C247.016 66.9657 246.923 66.999 246.776 66.999H245.356C245.09 66.999 244.956 66.8723 244.956 66.619V57.579C244.956 57.3257 245.09 57.199 245.356 57.199H246.776C246.923 57.199 247.016 57.239 247.056 57.319C247.11 57.3857 247.136 57.4723 247.136 57.579V66.619Z"
    fill="#6D6E70"
  />
<path
    d="M243.01 66.619C243.01 66.739 242.983 66.8323 242.93 66.899C242.877 66.9657 242.777 66.999 242.63 66.999H241.19C240.937 66.999 240.81 66.8723 240.81 66.619L240.83 60.999C240.83 60.4123 240.73 59.939 240.53 59.579C240.343 59.219 239.963 59.039 239.39 59.039C239.19 59.039 238.957 59.0723 238.69 59.139C238.437 59.2057 238.177 59.2923 237.91 59.399C237.657 59.4923 237.417 59.5923 237.19 59.699C236.963 59.7923 236.783 59.8723 236.65 59.939V66.619C236.65 66.8723 236.523 66.999 236.27 66.999H234.85C234.597 66.999 234.47 66.8723 234.47 66.619V57.599C234.47 57.3323 234.597 57.199 234.85 57.199H236.27C236.523 57.199 236.65 57.3323 236.65 57.599V58.199C236.663 58.199 236.67 58.2057 236.67 58.219C236.683 58.219 236.697 58.219 236.71 58.219C236.897 58.0857 237.117 57.9523 237.37 57.819C237.637 57.6723 237.917 57.539 238.21 57.419C238.503 57.299 238.81 57.2057 239.13 57.139C239.45 57.059 239.763 57.019 240.07 57.019C240.75 57.019 241.283 57.1257 241.67 57.339C242.057 57.539 242.35 57.8123 242.55 58.159C242.75 58.5057 242.877 58.9123 242.93 59.379C242.983 59.8323 243.01 60.3123 243.01 60.819V66.619Z"
    fill="#6D6E70"
  />
<path
    d="M233.021 61.939C233.021 62.5123 232.981 63.1057 232.901 63.719C232.835 64.3323 232.655 64.899 232.361 65.419C232.068 65.9257 231.628 66.3457 231.041 66.679C230.455 66.999 229.641 67.159 228.601 67.159C227.601 67.159 226.815 66.999 226.241 66.679C225.668 66.3457 225.235 65.9257 224.941 65.419C224.661 64.899 224.488 64.3323 224.421 63.719C224.355 63.1057 224.321 62.5123 224.321 61.939C224.321 61.4723 224.361 60.9523 224.441 60.379C224.535 59.8057 224.728 59.2723 225.021 58.779C225.315 58.2723 225.741 57.8523 226.301 57.519C226.875 57.1723 227.641 56.999 228.601 56.999C229.575 56.999 230.348 57.1457 230.921 57.439C231.508 57.7323 231.955 58.119 232.261 58.599C232.568 59.0657 232.768 59.5923 232.861 60.179C232.968 60.7657 233.021 61.3523 233.021 61.939ZM230.781 62.079C230.781 61.5457 230.755 61.0857 230.701 60.699C230.648 60.299 230.541 59.9723 230.381 59.719C230.221 59.4523 230.001 59.2523 229.721 59.119C229.441 58.9857 229.075 58.919 228.621 58.919C228.195 58.919 227.848 58.9857 227.581 59.119C227.315 59.2523 227.101 59.4523 226.941 59.719C226.795 59.9857 226.688 60.319 226.621 60.719C226.568 61.1057 226.541 61.559 226.541 62.079C226.541 62.6123 226.568 63.079 226.621 63.479C226.688 63.8657 226.795 64.1923 226.941 64.459C227.088 64.7123 227.295 64.9057 227.561 65.039C227.828 65.1723 228.175 65.239 228.601 65.239C229.055 65.239 229.421 65.179 229.701 65.059C229.995 64.9257 230.221 64.7323 230.381 64.479C230.541 64.2123 230.648 63.879 230.701 63.479C230.755 63.079 230.781 62.6123 230.781 62.079Z"
    fill="#6D6E70"
  />
<path
    d="M222.6 54.599C222.6 54.759 222.587 54.9123 222.56 55.059C222.533 55.1923 222.473 55.3123 222.38 55.419C222.3 55.5257 222.18 55.6123 222.02 55.679C221.873 55.7323 221.673 55.759 221.42 55.759C221.153 55.759 220.94 55.7257 220.78 55.659C220.633 55.5923 220.52 55.5057 220.44 55.399C220.36 55.2923 220.307 55.1723 220.28 55.039C220.253 54.8923 220.24 54.7457 220.24 54.599C220.24 54.279 220.313 54.0123 220.46 53.799C220.62 53.5723 220.94 53.459 221.42 53.459C221.913 53.459 222.233 53.5657 222.38 53.779C222.527 53.979 222.6 54.2523 222.6 54.599ZM222.48 66.619C222.48 66.7257 222.453 66.819 222.4 66.899C222.36 66.9657 222.267 66.999 222.12 66.999H220.7C220.433 66.999 220.3 66.8723 220.3 66.619V57.579C220.3 57.3257 220.433 57.199 220.7 57.199H222.12C222.267 57.199 222.36 57.239 222.4 57.319C222.453 57.3857 222.48 57.4723 222.48 57.579V66.619Z"
    fill="#6D6E70"
  />
<path
    d="M218.6 64.059C218.6 64.6457 218.487 65.139 218.26 65.539C218.033 65.9257 217.727 66.239 217.34 66.479C216.967 66.719 216.54 66.8923 216.06 66.999C215.58 67.1057 215.08 67.159 214.56 67.159C214.053 67.159 213.507 67.119 212.92 67.039C212.333 66.9723 211.847 66.8657 211.46 66.719C211.26 66.639 211.133 66.5523 211.08 66.459C211.027 66.3523 211.013 66.219 211.04 66.059L211.18 65.399C211.207 65.239 211.26 65.1457 211.34 65.119C211.42 65.079 211.54 65.0723 211.7 65.099C211.913 65.139 212.147 65.1723 212.4 65.199C212.667 65.2257 212.927 65.2523 213.18 65.279C213.447 65.2923 213.693 65.3057 213.92 65.319C214.16 65.3323 214.367 65.339 214.54 65.339C215.18 65.339 215.64 65.2523 215.92 65.079C216.2 64.8923 216.34 64.599 216.34 64.199C216.34 63.9723 216.313 63.7857 216.26 63.639C216.22 63.4923 216.14 63.3723 216.02 63.279C215.9 63.1857 215.733 63.1123 215.52 63.059C215.32 62.9923 215.06 62.939 214.74 62.899C214.247 62.8323 213.78 62.7457 213.34 62.639C212.9 62.5323 212.507 62.379 212.16 62.179C211.827 61.9657 211.56 61.6923 211.36 61.359C211.16 61.0123 211.06 60.5657 211.06 60.019C211.06 59.0323 211.407 58.2857 212.1 57.779C212.793 57.259 213.7 56.999 214.82 56.999C215.02 56.999 215.253 57.0057 215.52 57.019C215.787 57.0323 216.053 57.059 216.32 57.099C216.6 57.139 216.873 57.1857 217.14 57.239C217.407 57.2923 217.647 57.359 217.86 57.439C218.193 57.5723 218.333 57.7723 218.28 58.039L218.12 58.759C218.093 58.9057 218.04 58.999 217.96 59.039C217.893 59.0657 217.767 59.0657 217.58 59.039C217.153 58.9857 216.687 58.939 216.18 58.899C215.673 58.8457 215.233 58.819 214.86 58.819C214.22 58.819 213.793 58.9123 213.58 59.099C213.38 59.2723 213.28 59.5523 213.28 59.939C213.28 60.3257 213.407 60.579 213.66 60.699C213.927 60.819 214.367 60.9257 214.98 61.019C215.46 61.0857 215.913 61.1723 216.34 61.279C216.78 61.3857 217.167 61.5457 217.5 61.759C217.833 61.9723 218.1 62.259 218.3 62.619C218.5 62.979 218.6 63.459 218.6 64.059Z"
    fill="#6D6E70"
  />
<path
    d="M209.86 64.059C209.86 64.6457 209.747 65.139 209.52 65.539C209.294 65.9257 208.987 66.239 208.6 66.479C208.227 66.719 207.8 66.8923 207.32 66.999C206.84 67.1057 206.34 67.159 205.82 67.159C205.314 67.159 204.767 67.119 204.18 67.039C203.594 66.9723 203.107 66.8657 202.72 66.719C202.52 66.639 202.394 66.5523 202.34 66.459C202.287 66.3523 202.274 66.219 202.3 66.059L202.44 65.399C202.467 65.239 202.52 65.1457 202.6 65.119C202.68 65.079 202.8 65.0723 202.96 65.099C203.174 65.139 203.407 65.1723 203.66 65.199C203.927 65.2257 204.187 65.2523 204.44 65.279C204.707 65.2923 204.954 65.3057 205.18 65.319C205.42 65.3323 205.627 65.339 205.8 65.339C206.44 65.339 206.9 65.2523 207.18 65.079C207.46 64.8923 207.6 64.599 207.6 64.199C207.6 63.9723 207.574 63.7857 207.52 63.639C207.48 63.4923 207.4 63.3723 207.28 63.279C207.16 63.1857 206.994 63.1123 206.78 63.059C206.58 62.9923 206.32 62.939 206 62.899C205.507 62.8323 205.04 62.7457 204.6 62.639C204.16 62.5323 203.767 62.379 203.42 62.179C203.087 61.9657 202.82 61.6923 202.62 61.359C202.42 61.0123 202.32 60.5657 202.32 60.019C202.32 59.0323 202.667 58.2857 203.36 57.779C204.054 57.259 204.96 56.999 206.08 56.999C206.28 56.999 206.514 57.0057 206.78 57.019C207.047 57.0323 207.314 57.059 207.58 57.099C207.86 57.139 208.134 57.1857 208.4 57.239C208.667 57.2923 208.907 57.359 209.12 57.439C209.454 57.5723 209.594 57.7723 209.54 58.039L209.38 58.759C209.354 58.9057 209.3 58.999 209.22 59.039C209.154 59.0657 209.027 59.0657 208.84 59.039C208.414 58.9857 207.947 58.939 207.44 58.899C206.934 58.8457 206.494 58.819 206.12 58.819C205.48 58.819 205.054 58.9123 204.84 59.099C204.64 59.2723 204.54 59.5523 204.54 59.939C204.54 60.3257 204.667 60.579 204.92 60.699C205.187 60.819 205.627 60.9257 206.24 61.019C206.72 61.0857 207.174 61.1723 207.6 61.279C208.04 61.3857 208.427 61.5457 208.76 61.759C209.094 61.9723 209.36 62.259 209.56 62.619C209.76 62.979 209.86 63.459 209.86 64.059Z"
    fill="#6D6E70"
  />
<path
    d="M200.619 54.599C200.619 54.759 200.606 54.9123 200.579 55.059C200.552 55.1923 200.492 55.3123 200.399 55.419C200.319 55.5257 200.199 55.6123 200.039 55.679C199.892 55.7323 199.692 55.759 199.439 55.759C199.172 55.759 198.959 55.7257 198.799 55.659C198.652 55.5923 198.539 55.5057 198.459 55.399C198.379 55.2923 198.326 55.1723 198.299 55.039C198.272 54.8923 198.259 54.7457 198.259 54.599C198.259 54.279 198.332 54.0123 198.479 53.799C198.639 53.5723 198.959 53.459 199.439 53.459C199.932 53.459 200.252 53.5657 200.399 53.779C200.546 53.979 200.619 54.2523 200.619 54.599ZM200.499 66.619C200.499 66.7257 200.472 66.819 200.419 66.899C200.379 66.9657 200.286 66.999 200.139 66.999H198.719C198.452 66.999 198.319 66.8723 198.319 66.619V57.579C198.319 57.3257 198.452 57.199 198.719 57.199H200.139C200.286 57.199 200.379 57.239 200.419 57.319C200.472 57.3857 200.499 57.4723 200.499 57.579V66.619Z"
    fill="#6D6E70"
  />
<path
    d="M196.315 66.619C196.315 66.739 196.288 66.8323 196.235 66.899C196.195 66.9657 196.101 66.999 195.955 66.999H194.515C194.261 66.999 194.135 66.8723 194.135 66.619V60.939C194.135 60.1923 194.035 59.6923 193.835 59.439C193.635 59.1723 193.281 59.039 192.775 59.039C192.588 59.039 192.375 59.0723 192.135 59.139C191.908 59.2057 191.675 59.2857 191.435 59.379C191.208 59.459 190.988 59.5523 190.775 59.659C190.561 59.7657 190.375 59.859 190.215 59.939C190.215 60.0457 190.215 60.1857 190.215 60.359C190.228 60.5323 190.235 60.7323 190.235 60.959V66.619C190.235 66.739 190.208 66.8323 190.155 66.899C190.101 66.9657 190.001 66.999 189.855 66.999H188.395C188.168 66.999 188.055 66.8723 188.055 66.619V60.839C188.055 60.2257 187.961 59.7723 187.775 59.479C187.588 59.1857 187.241 59.039 186.735 59.039C186.561 59.039 186.361 59.0657 186.135 59.119C185.921 59.1723 185.695 59.2457 185.455 59.339C185.228 59.4323 185.001 59.5323 184.775 59.639C184.548 59.7457 184.341 59.8457 184.155 59.939V66.619C184.155 66.8723 184.028 66.999 183.775 66.999H182.335C182.095 66.999 181.975 66.8723 181.975 66.619V57.599C181.975 57.3323 182.095 57.199 182.335 57.199H183.755C184.021 57.199 184.155 57.3323 184.155 57.599V58.179L184.175 58.199C184.375 58.0657 184.588 57.9323 184.815 57.799C185.041 57.6523 185.281 57.5257 185.535 57.419C185.801 57.3123 186.068 57.2257 186.335 57.159C186.601 57.079 186.875 57.0323 187.155 57.019C187.728 57.019 188.248 57.1123 188.715 57.299C189.195 57.4723 189.588 57.8457 189.895 58.419C190.401 58.0457 190.955 57.719 191.555 57.439C192.155 57.159 192.775 57.019 193.415 57.019C194.068 57.019 194.588 57.119 194.975 57.319C195.361 57.519 195.655 57.7923 195.855 58.139C196.055 58.4723 196.181 58.8657 196.235 59.319C196.288 59.7723 196.315 60.2457 196.315 60.739V66.619Z"
    fill="#6D6E70"
  />
<path
    d="M180.27 66.619C180.27 66.739 180.244 66.8323 180.19 66.899C180.15 66.9657 180.057 66.999 179.91 66.999H178.47C178.217 66.999 178.09 66.8723 178.09 66.619V60.939C178.09 60.1923 177.99 59.6923 177.79 59.439C177.59 59.1723 177.237 59.039 176.73 59.039C176.544 59.039 176.33 59.0723 176.09 59.139C175.864 59.2057 175.63 59.2857 175.39 59.379C175.164 59.459 174.944 59.5523 174.73 59.659C174.517 59.7657 174.33 59.859 174.17 59.939C174.17 60.0457 174.17 60.1857 174.17 60.359C174.184 60.5323 174.19 60.7323 174.19 60.959V66.619C174.19 66.739 174.164 66.8323 174.11 66.899C174.057 66.9657 173.957 66.999 173.81 66.999H172.35C172.124 66.999 172.01 66.8723 172.01 66.619V60.839C172.01 60.2257 171.917 59.7723 171.73 59.479C171.544 59.1857 171.197 59.039 170.69 59.039C170.517 59.039 170.317 59.0657 170.09 59.119C169.877 59.1723 169.65 59.2457 169.41 59.339C169.184 59.4323 168.957 59.5323 168.73 59.639C168.504 59.7457 168.297 59.8457 168.11 59.939V66.619C168.11 66.8723 167.984 66.999 167.73 66.999H166.29C166.05 66.999 165.93 66.8723 165.93 66.619V57.599C165.93 57.3323 166.05 57.199 166.29 57.199H167.71C167.977 57.199 168.11 57.3323 168.11 57.599V58.179L168.13 58.199C168.33 58.0657 168.544 57.9323 168.77 57.799C168.997 57.6523 169.237 57.5257 169.49 57.419C169.757 57.3123 170.024 57.2257 170.29 57.159C170.557 57.079 170.83 57.0323 171.11 57.019C171.684 57.019 172.204 57.1123 172.67 57.299C173.15 57.4723 173.544 57.8457 173.85 58.419C174.357 58.0457 174.91 57.719 175.51 57.439C176.11 57.159 176.73 57.019 177.37 57.019C178.024 57.019 178.544 57.119 178.93 57.319C179.317 57.519 179.61 57.7923 179.81 58.139C180.01 58.4723 180.137 58.8657 180.19 59.319C180.244 59.7723 180.27 60.2457 180.27 60.739V66.619Z"
    fill="#6D6E70"
  />
<path
    d="M164.422 61.939C164.422 62.5123 164.382 63.1057 164.302 63.719C164.235 64.3323 164.055 64.899 163.762 65.419C163.468 65.9257 163.028 66.3457 162.442 66.679C161.855 66.999 161.042 67.159 160.002 67.159C159.002 67.159 158.215 66.999 157.642 66.679C157.068 66.3457 156.635 65.9257 156.342 65.419C156.062 64.899 155.888 64.3323 155.822 63.719C155.755 63.1057 155.722 62.5123 155.722 61.939C155.722 61.4723 155.762 60.9523 155.842 60.379C155.935 59.8057 156.128 59.2723 156.422 58.779C156.715 58.2723 157.142 57.8523 157.702 57.519C158.275 57.1723 159.042 56.999 160.002 56.999C160.975 56.999 161.748 57.1457 162.322 57.439C162.908 57.7323 163.355 58.119 163.662 58.599C163.968 59.0657 164.168 59.5923 164.262 60.179C164.368 60.7657 164.422 61.3523 164.422 61.939ZM162.182 62.079C162.182 61.5457 162.155 61.0857 162.102 60.699C162.048 60.299 161.942 59.9723 161.782 59.719C161.622 59.4523 161.402 59.2523 161.122 59.119C160.842 58.9857 160.475 58.919 160.022 58.919C159.595 58.919 159.248 58.9857 158.982 59.119C158.715 59.2523 158.502 59.4523 158.342 59.719C158.195 59.9857 158.088 60.319 158.022 60.719C157.968 61.1057 157.942 61.559 157.942 62.079C157.942 62.6123 157.968 63.079 158.022 63.479C158.088 63.8657 158.195 64.1923 158.342 64.459C158.488 64.7123 158.695 64.9057 158.962 65.039C159.228 65.1723 159.575 65.239 160.002 65.239C160.455 65.239 160.822 65.179 161.102 65.059C161.395 64.9257 161.622 64.7323 161.782 64.479C161.942 64.2123 162.048 63.879 162.102 63.479C162.155 63.079 162.182 62.6123 162.182 62.079Z"
    fill="#6D6E70"
  />
<path
    d="M147.3 60.119L148.82 58.159L152.18 54.019C152.273 53.9123 152.367 53.839 152.46 53.799C152.553 53.7457 152.68 53.719 152.84 53.719H154.66C154.807 53.719 154.893 53.759 154.92 53.839C154.96 53.919 154.933 54.0123 154.84 54.119L150.5 59.399L154.98 66.579C155.06 66.7123 155.073 66.819 155.02 66.899C154.967 66.9657 154.887 66.999 154.78 66.999H152.94C152.767 66.999 152.633 66.9657 152.54 66.899C152.46 66.8323 152.38 66.739 152.3 66.619L149.02 61.179L147.26 63.359V66.619C147.26 66.7257 147.233 66.819 147.18 66.899C147.14 66.9657 147.047 66.999 146.9 66.999H145.4C145.133 66.999 145 66.8723 145 66.619V54.119C145 53.8523 145.133 53.719 145.4 53.719H146.9C147.047 53.719 147.14 53.759 147.18 53.839C147.233 53.9057 147.26 53.999 147.26 54.119V60.119H147.3Z"
    fill="#6D6E70"
  />
<path
    fill-rule="evenodd"
    clip-rule="evenodd"
    d="M254.8 66.7H258.1V28H254.8V66.7Z"
    fill="#003399"
  />
<path
    d="M86.4932 27.54H86.437H28.067V66.1895H86.437H86.4932V27.54Z"
    fill="#003399"
  />
<path
    d="M57.8093 33.3799H59.8442L58.203 34.644L58.8421 36.6462L57.2111 35.4125L55.58 36.6462L56.2191 34.644L54.5676 33.3799H56.5975L57.2111 31.4282L57.8093 33.3799Z"
    fill="#FFED00"
  />
<path
    d="M57.8809 59.1564H59.9158L58.2797 60.3749L58.9137 62.3013L57.2826 61.1131L55.6516 62.3013L56.2958 60.3749L54.6392 59.1564H56.6691L57.2826 57.2805L57.8809 59.1564Z"
    fill="#FFED00"
  />
<path
    d="M64.3284 57.4524H66.3685L64.7272 58.6659L65.3663 60.5923L63.7302 59.4041L62.0991 60.5923L62.7433 58.6659L61.0867 57.4524H63.1166L63.7302 55.5715L64.3284 57.4524Z"
    fill="#FFED00"
  />
<path
    d="M64.3284 35.099H66.3685L64.7272 36.3175L65.3663 38.2439L63.7302 37.0557L62.0991 38.2439L62.7433 36.3175L61.0867 35.099H63.1166L63.7302 33.2231L64.3284 35.099Z"
    fill="#FFED00"
  />
<path
    d="M69.1193 39.8367H71.1491L69.513 41.0502L70.147 42.9766L68.5159 41.7884L66.8849 42.9766L67.5291 41.0502L65.8725 39.8367H67.9024L68.5159 37.9558L69.1193 39.8367Z"
    fill="#FFED00"
  />
<path
    d="M69.1193 52.7805H71.1491L69.513 53.999L70.147 55.9255L68.5159 54.7373L66.8849 55.9255L67.5291 53.999L65.8725 52.7805H67.9024L68.5159 50.9047L69.1193 52.7805Z"
    fill="#FFED00"
  />
<path
    d="M70.9088 46.2075H72.9489L71.3076 47.426L71.9467 49.3525L70.3106 48.1643L68.6795 49.3525L69.3238 47.426L67.6672 46.2075H69.697L70.3106 44.3317L70.9088 46.2075Z"
    fill="#FFED00"
  />
<path
    d="M51.2391 35.1192H53.2689L51.6328 36.3327L52.2668 38.2591L50.6357 37.0709L49.0047 38.2591L49.6489 36.3327L47.9974 35.1192H50.0222L50.6357 33.2383L51.2391 35.1192Z"
    fill="#FFED00"
  />
<path
    d="M46.5812 39.8518H48.6213L46.98 41.0653L47.614 42.9917L45.983 41.8035L44.3519 42.9917L44.9961 41.0653L43.3395 39.8518H45.3694L45.983 37.9709L46.5812 39.8518Z"
    fill="#FFED00"
  />
<path
    d="M44.853 46.2277H46.888L45.2518 47.4412L45.8858 49.3676L44.2548 48.1844L42.6237 49.3676L43.268 47.4412L41.6165 46.2277H43.6412L44.2548 44.3468L44.853 46.2277Z"
    fill="#FFED00"
  />
<path
    d="M46.5812 52.7956H48.6213L46.98 54.0142L47.614 55.9406L45.983 54.7524L44.3519 55.9406L44.9961 54.0142L43.3395 52.7956H45.3694L45.983 50.9198L46.5812 52.7956Z"
    fill="#FFED00"
  />
<path
    d="M51.3055 57.4676H53.3354L51.6992 58.6811L52.3333 60.6075L50.7022 59.4193L49.0712 60.6075L49.7154 58.6811L48.0639 57.4676H50.0887L50.7022 55.5867L51.3055 57.4676Z"
    fill="#FFED00"
  />
<path
    d="M95.3693 0.0040807C95.3693 0.0040807 107.369 18.9091 109.568 22.3726C111.762 25.8361 114.272 28.5816 123.153 30.4423C132.035 32.303 135.9 33.1827 135.9 33.1827V33.8552C135.9 33.8552 130.255 32.667 122.995 31.0642C115.734 29.4614 112.764 28.9204 109.456 24.3648C106.7 20.5726 95.3693 3.61419 95.3693 3.61419V-0.000976562V0.0040807Z"
    fill="#6D6E70"
  />
<path
    d="M95.3693 21.5939C95.3693 21.5939 106.296 32.9147 109.456 36.1658C112.81 39.6142 117.099 40.8883 123.051 41.94C128.732 42.9411 135.895 44.099 135.895 44.099V44.7361C135.895 44.7361 129.166 43.6439 123.051 42.6125C117.053 41.5962 112.856 41.0299 109.42 37.9001C106.342 35.099 95.3693 24.9209 95.3693 24.9209V21.5889V21.5939Z"
    fill="#6D6E70"
  />
<path
    d="M95.3693 26.6957C95.3693 26.6957 105.759 36.2368 109.456 39.498C112.856 42.4963 115.612 43.4317 123.087 44.7412C130.562 46.0508 135.895 46.8648 135.895 46.8648V47.5373C135.895 47.5373 129.13 46.4401 123.051 45.4795C116.972 44.5238 113.096 44.1446 109.456 41.2272C105.258 37.8598 95.3693 29.8103 95.3693 29.8103V26.6907V26.6957Z"
    fill="#6D6E70"
  />
<path
    d="M95.3693 32.1311C95.3693 32.1311 107.237 41.4446 109.456 43.0727C111.675 44.7008 114.609 46.6019 123.123 47.8204C131.564 49.0289 135.895 49.6255 135.895 49.6255V50.3334C135.895 50.3334 128.241 49.2362 123.123 48.5991C118.004 47.962 114.083 47.689 109.491 44.6654C105.023 41.7227 95.3693 35.003 95.3693 35.003V32.1311Z"
    fill="#6D6E70"
  />
<path
    d="M95.3693 37.3591C95.3693 37.3591 107.272 45.1962 109.527 46.44C111.782 47.6788 114.431 49.7013 123.123 50.7985C131.815 51.8957 135.895 52.3912 135.895 52.3912V53.0636C135.895 53.0636 128.706 52.285 123.087 51.6833C117.473 51.0816 113.643 50.2676 109.456 47.9973C105.268 45.7322 95.3693 40.0086 95.3693 40.0086V37.3591Z"
    fill="#6D6E70"
  />
<path
    d="M95.3693 42.5872C95.3693 42.5872 105.892 48.2501 109.456 50.0147C113.428 51.9867 116.864 52.9322 123.087 53.6653C129.197 54.3833 135.895 55.081 135.895 55.081V55.7181C135.895 55.7181 129.703 55.0608 123.087 54.444C116.527 53.8271 114.19 53.544 109.456 51.4659C105.222 49.6052 95.3693 45.0647 95.3693 45.0647V42.5822V42.5872Z"
    fill="#6D6E70"
  />
<path
    d="M95.3693 47.8861C95.3693 47.8861 103.683 51.4052 109.527 53.7007C115.274 55.9558 119.666 56.1479 123.158 56.5372C124.697 56.7091 135.895 57.8468 135.895 57.8468V58.4839C135.895 58.4839 129.207 57.953 123.123 57.4221C117.038 56.8912 114.415 56.6636 109.491 55.0507C104.506 53.4125 95.3693 50.2625 95.3693 50.2625V47.8912V47.8861Z"
    fill="#6D6E70"
  />
<path
    d="M95.3693 53.2913C95.3693 53.2913 103.765 55.8649 109.491 57.3514C115.218 58.8379 120.474 59.4446 123.123 59.6165C125.771 59.7935 135.9 60.6076 135.9 60.6076V61.2092C135.9 61.2092 130.138 60.8199 123.087 60.3244C117.386 59.925 112.81 59.5003 109.456 58.7671C105.744 57.9581 95.3693 55.521 95.3693 55.521V53.2913Z"
    fill="#6D6E70"
  />
<path
    d="M95.3693 58.6052C95.3693 58.6052 102.236 59.7783 109.491 60.9665C114.932 61.8563 122.299 62.4176 123.087 62.453C123.874 62.4884 135.895 63.3024 135.895 63.3024V63.9395C135.895 63.9395 128.2 63.5451 123.087 63.267C117.759 62.9738 112.462 62.6552 109.456 62.3468C102.717 61.6541 95.3693 60.7339 95.3693 60.7339V58.6052Z"
    fill="#6D6E70"
  />
<path
    d="M95.3693 64.1064C95.3693 64.1064 106.199 64.5109 109.491 64.5817C112.784 64.6525 135.895 65.5727 135.895 65.5727V66.1947H95.3693V64.1064Z"
    fill="#6D6E70"
  />
<path
    d="M123.082 33.3648C113.28 31.2766 111.061 27.7322 109.415 25.5378C107.768 23.3384 95.3642 5.41418 95.3642 5.41418V8.71082C95.855 9.34284 106.47 23.8339 109.45 27.626C112.81 31.8985 118.071 32.8693 123.082 33.9311C128.087 34.9929 135.895 36.4743 135.895 36.4743V35.908C135.895 35.908 125.618 33.9007 123.082 33.3648Z"
    fill="#6D6E70"
  />
<path
    d="M123.082 36.2013C115.034 34.644 111.777 32.126 109.415 29.0822C107.052 26.0333 95.3642 10.4451 95.3642 10.4451V14.2777C95.855 14.849 106.546 27.7524 109.415 30.9985C112.759 34.7855 117.427 35.7816 123.082 36.808C128.737 37.8344 135.89 39.1794 135.89 39.1794V38.6131C135.89 38.6131 127.724 37.1013 123.082 36.2063V36.2013Z"
    fill="#6D6E70"
  />
<path
    d="M123.082 39.139C114.712 37.5311 112.994 36.2114 109.45 32.3738C107.221 29.962 95.8448 16.6794 95.3642 16.1182V19.6575C95.3642 19.6575 105.994 30.8721 109.415 34.1839C113.899 38.5322 118.107 38.8609 123.082 39.7457C128.057 40.6305 135.89 42.0463 135.89 42.0463V41.4446C135.89 41.4446 126.431 39.7862 123.082 39.144V39.139Z"
    fill="#6D6E70"
  />
<path
    d="M0.282944 27.7777C0.282944 27.7777 27.9954 24.8552 35.7569 23.7782C48.0281 22.0794 58.07 20.2692 67.3603 6.18777C67.3603 6.18777 67.3705 5.3889 67.3603 5.02991C61.6696 13.59 53.8211 19.4299 43.0122 21.1237C32.4539 22.7822 0.277832 25.2041 0.277832 25.2041V27.7777H0.282944Z"
    fill="#6D6E70"
  />
<path
    d="M0.277832 24.2838C0.277832 24.2838 25.9604 21.1035 34.4224 19.9304C47.8082 18.0799 57.2212 16.4164 67.3552 1.05571C67.3552 1.05571 67.3603 0.393354 67.3552 0.00402832C61.148 9.3428 53.4836 15.3748 41.6931 17.2254C30.1735 19.0355 0.277832 21.6748 0.277832 21.6748V24.2889V24.2838Z"
    fill="#6D6E70"
  />
<path d="M26.4972 64.1316H0.293152V66.1844H26.4972V64.1316Z" fill="#6D6E70" />
<path
    d="M67.3552 22.5698C67.3552 22.5698 67.3705 21.3614 67.3654 21.1035C66.1332 22.9591 64.5123 24.6428 62.641 26.1243H64.4766C65.5094 25.0726 66.4757 23.8945 67.35 22.5698H67.3552Z"
    fill="#6D6E70"
  />
<path
    d="M67.3552 17.1092C67.3552 17.1092 67.3654 16.0373 67.3603 15.744C64.3897 20.2137 59.9669 23.7834 54.8539 26.1496L57.8706 26.1395C61.3577 24.1322 64.5993 21.2805 67.3501 17.1092H67.3552Z"
    fill="#6D6E70"
  />
<path
    d="M67.3552 11.6485C67.3552 11.6485 67.3654 10.7131 67.3552 10.3895C62.1859 18.171 54.1483 23.4952 44.3211 25.0373C41.9947 25.4013 38.206 25.8058 33.8037 26.2154L45.8039 26.1749C53.7239 24.4305 61.1378 21.0581 67.3449 11.6485H67.3552Z"
    fill="#6D6E70"
  />
<path
    d="M26.5024 60.6732C13.1319 60.744 0.293152 60.7996 0.293152 60.7996V62.9384C0.293152 62.9384 13.7403 62.8423 26.5024 62.7361V60.6732Z"
    fill="#6D6E70"
  />
<path
    d="M26.5024 57.0024C13.224 57.1491 0.288086 57.2603 0.288086 57.2603V59.4446C0.288086 59.4446 13.8733 59.2676 26.5024 59.0704V57.0024Z"
    fill="#6D6E70"
  />
<path
    d="M26.4973 53.3215C13.316 53.5491 0.288086 53.721 0.288086 53.721V55.9507C0.288086 55.9507 14.0165 55.6828 26.4973 55.3895V53.3215Z"
    fill="#6D6E70"
  />
<path
    d="M26.5024 49.6204C13.4183 49.939 0.288086 50.1766 0.288086 50.1766V52.4468C0.288086 52.4468 14.175 52.0727 26.5024 51.6833V49.6154V49.6204Z"
    fill="#6D6E70"
  />
<path
    d="M26.5075 45.9092C13.5205 46.3187 0.288086 46.6423 0.288086 46.6423V48.9581C0.288086 48.9581 14.3437 48.4727 26.5075 47.9772V45.9142V45.9092Z"
    fill="#6D6E70"
  />
<path
    d="M26.5024 42.1828C13.6177 42.6985 0.288086 43.103 0.288086 43.103V45.4592C0.288086 45.4592 14.5175 44.8423 26.5024 44.2305V42.1777V42.1828Z"
    fill="#6D6E70"
  />
<path
    d="M26.5075 38.431C13.7199 39.058 0.282959 39.5586 0.282959 39.5586V41.9602C0.282959 41.9602 14.7016 41.1968 26.5075 40.4636V38.431Z"
    fill="#6D6E70"
  />
<path
    d="M26.5075 34.6592C13.8171 35.4075 0.282959 36.0193 0.282959 36.0193V38.4614C0.282959 38.4614 14.8959 37.5311 26.5075 36.6715V34.6592Z"
    fill="#6D6E70"
  />
<path
    d="M26.5075 30.8671C13.904 31.7468 0.282959 32.485 0.282959 32.485V34.9727C0.282959 34.9727 15.0902 33.8502 26.5075 32.8592V30.8721V30.8671Z"
    fill="#6D6E70"
  />
<path
    d="M26.5075 27.0394C13.9807 28.0658 0.277832 28.9406 0.277832 28.9406V31.4686C0.277832 31.4686 15.2845 30.1237 26.5075 28.9911V27.0394Z"
    fill="#6D6E70"
  />
</svg>
